<svg width="21" height="21" viewBox="0 0 21 21" fill="none" xmlns="http://www.w3.org/2000/svg">
<path d="M10.4993 17.0707C12.2675 17.0707 13.9632 16.3683 15.2134 15.1181C16.4636 13.8678 17.166 12.1721 17.166 10.404C17.166 8.6359 16.4636 6.94021 15.2134 5.68997C13.9632 4.43972 12.2675 3.73735 10.4993 3.73735C8.73124 3.73735 7.03555 4.43972 5.7853 5.68997C4.53506 6.94021 3.83268 8.6359 3.83268 10.404C3.83268 12.1721 4.53506 13.8678 5.7853 15.1181C7.03555 16.3683 8.73124 17.0707 10.4993 17.0707ZM10.4993 2.07068C11.5937 2.07068 12.6773 2.28623 13.6884 2.70502C14.6994 3.12381 15.6181 3.73763 16.3919 4.51146C17.1657 5.28528 17.7796 6.20394 18.1983 7.21498C18.6171 8.22603 18.8327 9.30966 18.8327 10.404C18.8327 12.6141 17.9547 14.7338 16.3919 16.2966C14.8291 17.8594 12.7095 18.7373 10.4993 18.7373C5.89102 18.7373 2.16602 14.9873 2.16602 10.404C2.16602 8.19387 3.04399 6.07426 4.60679 4.51146C6.1696 2.94865 8.28921 2.07068 10.4993 2.07068ZM10.916 6.23735V10.6123L14.666 12.8373L14.041 13.8623L9.66602 11.2373V6.23735H10.916Z" fill="#E2E2E2"/>
</svg>
