<svg width="21" height="21" viewBox="0 0 21 21" fill="none" xmlns="http://www.w3.org/2000/svg">
<g clip-path="url(#clip0_1749_524)">
<path d="M9.25065 17.0708C9.25065 17.4023 9.38235 17.7202 9.61677 17.9546C9.85119 18.1891 10.1691 18.3208 10.5007 18.3208C10.8322 18.3208 11.1501 18.1891 11.3845 17.9546C11.619 17.7202 11.7507 17.4023 11.7507 17.0708V11.6541H17.1673C17.4988 11.6541 17.8168 11.5224 18.0512 11.288C18.2856 11.0536 18.4173 10.7356 18.4173 10.4041C18.4173 10.0726 18.2856 9.75463 18.0512 9.52021C17.8168 9.28579 17.4988 9.15409 17.1673 9.15409H11.7507V3.73743C11.7507 3.40591 11.619 3.08796 11.3845 2.85354C11.1501 2.61912 10.8322 2.48743 10.5007 2.48743C10.1691 2.48743 9.85119 2.61912 9.61677 2.85354C9.38235 3.08796 9.25065 3.40591 9.25065 3.73743V9.15409H3.83398C3.50246 9.15409 3.18452 9.28579 2.9501 9.52021C2.71568 9.75463 2.58398 10.0726 2.58398 10.4041C2.58398 10.7356 2.71568 11.0536 2.9501 11.288C3.18452 11.5224 3.50246 11.6541 3.83398 11.6541H9.25065V17.0708Z" fill="#F8F8F8"/>
</g>
<defs>
<clipPath id="clip0_1749_524">
<rect width="20" height="20" fill="white" transform="translate(0.5 0.404053)"/>
</clipPath>
</defs>
</svg>
